<svg xmlns="http://www.w3.org/2000/svg" xmlns:xlink="http://www.w3.org/1999/xlink" viewBox="0 0 476.44 308.71"><defs><style>.cls-1{fill:#4b1fa3;}.cls-2{fill:url(#_ÂÁ_Ï_ÌÌ_È_ËÂÌÚ_4);}.cls-3{fill:url(#_ÂÁ_Ï_ÌÌ_È_ËÂÌÚ_4-2);}.cls-4{fill:url(#_ÂÁ_Ï_ÌÌ_È_ËÂÌÚ_4-3);}</style><linearGradient id="_ÂÁ_Ï_ÌÌ_È_ËÂÌÚ_4" y1="154.35" x2="476.44" y2="154.35" gradientUnits="userSpaceOnUse"><stop offset="0" stop-color="#556bf2"/><stop offset="0.06" stop-color="#7768dc"/><stop offset="0.14" stop-color="#a264bf"/><stop offset="0.22" stop-color="#c161ab"/><stop offset="0.28" stop-color="#d4609e"/><stop offset="0.33" stop-color="#db5f9a"/><stop offset="0.64" stop-color="#556bf2"/></linearGradient><linearGradient id="_ÂÁ_Ï_ÌÌ_È_ËÂÌÚ_4-2" x1="779.4" y1="284.34" x2="-103.15" y2="80.26" xlink:href="#_ÂÁ_Ï_ÌÌ_È_ËÂÌÚ_4"/><linearGradient id="_ÂÁ_Ï_ÌÌ_È_ËÂÌÚ_4-3" x1="808.69" y1="157.68" x2="-73.86" y2="-46.39" xlink:href="#_ÂÁ_Ï_ÌÌ_È_ËÂÌÚ_4"/></defs><g id="content"><path class="cls-1" d="M451.15,1H25.29A24.11,24.11,0,0,0,1,25V297a10.65,10.65,0,0,0,10.64,10.65h453.1A10.65,10.65,0,0,0,475.41,297V25A24.11,24.11,0,0,0,451.15,1Zm8.79,296.21H16.5V25H459.94Z"/><path class="cls-2" d="M464.77,308.71H11.67A11.69,11.69,0,0,1,0,297V25A25.17,25.17,0,0,1,25.29,0H451.15a25.17,25.17,0,0,1,25.29,25V297A11.69,11.69,0,0,1,464.77,308.71ZM25.29,2.06A23.11,23.11,0,0,0,2.06,25V297a9.63,9.63,0,0,0,9.61,9.62h453.1a9.63,9.63,0,0,0,9.61-9.62V25A23.11,23.11,0,0,0,451.15,2.06ZM461,298.27H15.47V20.12H461ZM17.54,296.21H458.9v-274H17.54Z"/><rect class="cls-1" x="16.5" y="21.16" width="443.43" height="276.08"/><path class="cls-3" d="M461,298.27H15.47V20.12H461ZM17.54,296.21H458.9v-274H17.54Z"/><rect class="cls-4" x="16.5" y="21.16" width="443.43" height="9.23"/></g></svg>