<svg xmlns="http://www.w3.org/2000/svg" viewBox="0 0 639.42 128.98"><defs><style>.cls-1{fill:#fff;}.cls-2,.cls-3{fill:none;stroke:#fff;stroke-miterlimit:10;}.cls-3{stroke-width:2.66px;opacity:0.5;}</style></defs><g id="content"><path class="cls-1" d="M626,129H13.46c-4.08,0-8-3-10.74-8.3C.4,116.21-1,110.09.8,107.58l72.11-103C75,1.6,83.34,0,90.14,0H549.28c6.8,0,15.15,1.6,17.23,4.58l72.1,103c1.76,2.51.41,8.64-1.92,13.1C634,126,630,129,626,129ZM90.14,2.06C82.5,2.06,75.82,4,74.6,5.76l-72.11,103c-1,1.41-.31,6.4,2.06,11,1.13,2.16,4.25,7.19,8.91,7.19H626c4.66,0,7.78-5,8.9-7.19,2.38-4.57,3-9.56,2.06-11l-72.1-103c-1.23-1.75-7.91-3.7-15.54-3.7Z"/><path class="cls-1" d="M626,129H13.46c-4.08,0-8-3-10.74-8.3C.4,116.21-1,110.09.8,107.58l.31-.44h637.2l.3.44c1.76,2.51.41,8.64-1.92,13.1C634,126,630,129,626,129ZM2.28,109.2c-.65,1.82.1,6.36,2.27,10.53,1.13,2.16,4.25,7.19,8.91,7.19H626c4.66,0,7.78-5,8.9-7.19,2.18-4.17,2.92-8.71,2.28-10.53Z"/><path class="cls-2" d="M161.19,25.31l-3.51,8.18h29.45L190,25.31ZM278,23.46h28.74l.25-7.69h-28.1Zm-125.84,0h28.62l2.88-7.69h-28Zm-26.77,10h29.4l3.54-8.18H129.58Zm58.23-10h28.66l2.22-7.69h-28Zm62.92,0h28.72l.91-7.69h-28.1Zm8.09,10h29.54l.76-8.18H256Zm-64.63,0h29.49l2.15-8.18H192.8Zm32.31,0h29.53l1.44-8.18H224.42Zm-7.24-10h28.7l1.57-7.69H217.26ZM200.77,44.08l2.64-8.71H173.79l-3.36,8.71ZM279.54,46H249l-1.7,9.3H278.6Zm21.38-10.61H271.21l-1.12,8.71H300.5Zm12,10.61H282.36l-.9,9.3h31.33ZM268.42,35.37H238.73l-1.86,8.71h30.4Zm-100.9,8.71,3.38-8.71H141.32l-4.09,8.71ZM176,55.28l3.31-9.3H148.85l-4.07,9.3ZM212.73,46H182.22l-3.28,9.3h31.27Zm33.41,0H215.6l-2.49,9.3h31.3ZM235.92,35.37H206.26l-2.61,8.71H234Zm200.36,8.71h30.34l-3.3-8.71H433.69Zm38.38-18.77H445.87l2.76,8.18h29.46Zm-10.8-9.54,3,7.69h28.61l-3.67-7.69ZM333.41,35.37H303.7l-.38,8.71h30.42Zm166.42,8.71-4-8.71H466.2l3.33,8.71Zm6.44-18.77H477.53L481,33.49H510.4ZM494.13,61.16H533l-2.08-3.95H492.45Zm-3.31-47.22h23.05l-2.52-4.65H488.62ZM151.16,9.29H128.43l-2.51,4.65h23Zm135.78,24.2H316.5l.05-8.18H287.66ZM482.79,46l3.85,9.3h79.71L560.63,46ZM570,61.16l-2.43-3.95H534l2.08,3.95ZM340.52,15.77l.42,7.69h28.74l-1.06-7.69ZM319.27,33.49h29.56l-.65-8.18H319.3Zm32.34,0h29.54l-1.34-8.18H350.93ZM309.69,15.77l-.22,7.69H338.2l-.39-7.69Zm106.6,17.72h29.49l-2.73-8.18H414.22ZM402.18,15.77l1.73,7.69H432.6l-2.36-7.69Zm-30.84,0,1.09,7.69h28.71l-1.71-7.69Zm61.67,0,2.4,7.69h28.65l-3-7.69ZM383.94,33.49h29.53l-2-8.18H382.57Zm29.71,23.72H382.18l1.68,10.94h32.36Zm-321-33.75h25.15L122,15.77H97.35Zm29.8,10,4.24-8.18H91.48l-5,8.18Zm11.85,10.59,4.12-8.71H85.31L80,44.08Zm95.84-30.14H253.3l.84-4.65H231.28ZM141.8,55.28l4.1-9.3H78.78l-5.71,9.3Zm62.26-41.34h23.16l1.18-4.65H205.56ZM346.33,46H315.76l-.12,9.3H347ZM120.7,23.46h28.58l3.52-7.69H124.86ZM178,13.94h23.13l1.52-4.65H179.85Zm-26,0h23.09l1.86-4.65H154.14ZM133.91,68.15l4.89-10.94H107.46l-5.78,10.94ZM571.15,63.1h-34l2.68,5.05h34.47ZM207.54,57.21H176.12L172.2,68.15h32.32ZM516.91,13.94h24l-2.86-4.65H514.38ZM104.42,57.21H71.89L65.16,68.15H98.6Zm18.46-43.27,2.53-4.65H101.33l-2.86,4.65ZM448,57.21H416.55l2.6,10.94h32.34Zm-68.68,0H210.45l-3,10.94H381ZM492,63.1H452.82l1.63,5.05h39.64Zm42.08,0H495l2.15,5.05h39.58ZM173.17,57.21H141.79l-4.85,10.94h32.28ZM449.5,55.28l-3-9.3H416l2.26,9.3ZM430.85,35.37H401.19L403,44.08h30.38Zm52.82,19.91L479.85,46H449.37l3.06,9.3Zm25.52-30,4.15,8.18H553l-5-8.18ZM498.71,35.37l4.08,8.71h56.68l-5.36-8.71Zm-7.58,25.79-1.66-3.95H450.92l1.27,3.95Zm-110-5.88L379.72,46H349.15l.68,9.3Zm34.17,0L413.1,46H382.55l1.48,9.3ZM365.89,35.37h-29.7l.36,8.71H367Zm32.49,0h-29.7l1.11,8.71h30.4ZM256.17,13.94h23.2l.51-4.65H257Zm52.12,0H331.5l-.16-4.65h-22.9Zm26.06,0h23.22l-.5-4.65h-22.9ZM494.7,15.77l3.7,7.69h48.39l-4.72-7.69ZM360.42,13.94h23.21l-.84-4.65H359.9Zm-78.2,0h23.22l.17-4.65H282.72Zm156.43,0h23.13l-1.84-4.65H437.13Zm26.09,0h23.09l-2.18-4.65H462.87Zm-78.24,0h23.18l-1.17-4.65H385.64Zm26.07,0h23.16l-1.5-4.65H411.38Z"/><path class="cls-3" d="M381.47,77.06H258c-3.32,0-6.17,1-6.36,2.23L248,101.71c-.23,1.38,2.46,2.5,6,2.5H385.43c3.53,0,6.21-1.12,6-2.5l-3.59-22.42C387.63,78.05,384.78,77.06,381.47,77.06Z"/><path class="cls-1" d="M385.43,105.24H254c-3,0-5.46-.74-6.48-1.94a2.1,2.1,0,0,1-.53-1.75l3.59-22.43C250.91,77,254.63,76,258,76H381.47c3.31,0,7,1,7.38,3.09l3.59,22.43a2.14,2.14,0,0,1-.53,1.75C390.89,104.5,388.4,105.24,385.43,105.24ZM258,78.09c-3.32,0-5.2,1-5.35,1.38L249,101.87c.1.35,1.77,1.31,5,1.31H385.43c3.2,0,4.88-1,5-1.32l-3.59-22.41c-.15-.36-2-1.36-5.34-1.36Z"/><path class="cls-1" d="M385.43,105.24H254c-3,0-5.46-.74-6.48-1.94a2.1,2.1,0,0,1-.53-1.75l1.18-7.4h143.1l1.18,7.4a2.14,2.14,0,0,1-.53,1.75C390.89,104.5,388.4,105.24,385.43,105.24Zm-135.51-9-.91,5.66c.1.35,1.77,1.31,5,1.31H385.43c3.2,0,4.88-1,5-1.32l-.9-5.65Z"/></g></svg>