<svg xmlns="http://www.w3.org/2000/svg" viewBox="0 0 476.44 308.71"><defs><style>.cls-1{fill:#fff;}.cls-2{fill:none;stroke:#fff;stroke-miterlimit:10;}</style></defs><g id="content"><path class="cls-1" d="M464.77,308.71H11.67A11.69,11.69,0,0,1,0,297V25A25.17,25.17,0,0,1,25.29,0H451.15a25.17,25.17,0,0,1,25.29,25V297A11.69,11.69,0,0,1,464.77,308.71ZM25.29,2.06A23.11,23.11,0,0,0,2.06,25V297a9.63,9.63,0,0,0,9.61,9.62h453.1a9.63,9.63,0,0,0,9.61-9.62V25A23.11,23.11,0,0,0,451.15,2.06ZM461,298.27H15.47V20.12H461ZM17.54,296.21H458.9v-274H17.54Z"/><path class="cls-1" d="M461,296.27H15.47V20.12H461Zm-443.43-.06H458.9v-274H17.54Z"/><rect class="cls-2" x="16.5" y="21.16" width="443.43" height="9.23"/></g></svg>